<?xml version="1.0" standalone="no"?>
<!DOCTYPE svg PUBLIC "-//W3C//DTD SVG 20010904//EN"
 "http://www.w3.org/TR/2001/REC-SVG-20010904/DTD/svg10.dtd">
<svg version="1.0" xmlns="http://www.w3.org/2000/svg"
 width="225.000000pt" height="225.000000pt" viewBox="0 0 225.000000 225.000000"
 preserveAspectRatio="xMidYMid meet">

<g transform="translate(0.000000,225.000000) scale(0.100000,-0.100000)"
fill="#000000" stroke="none">
<path d="M0 1125 l0 -1125 1125 0 1125 0 0 1125 0 1125 -1125 0 -1125 0 0
-1125z m851 402 c146 -61 235 -189 246 -359 5 -72 8 -78 28 -78 21 0 23 6 28
81 10 149 101 289 225 347 50 24 69 27 162 27 88 0 112 -4 149 -22 44 -22 45
-22 58 -3 8 11 25 20 39 20 l24 0 0 -150 0 -150 -25 0 c-20 0 -26 7 -36 42
-24 90 -75 164 -133 195 -33 17 -113 19 -161 3 -18 -6 -51 -30 -73 -54 -53
-58 -83 -140 -90 -248 l-5 -88 312 0 311 0 0 -30 c0 -27 -3 -30 -30 -30 -17 0
-39 -9 -51 -21 -20 -20 -21 -29 -16 -134 l5 -111 -46 -18 c-91 -35 -148 -46
-242 -46 -81 0 -103 4 -150 26 -30 14 -70 37 -89 51 -46 35 -105 129 -124 200
-15 51 -20 58 -42 58 -22 0 -27 -8 -44 -65 -36 -117 -129 -219 -232 -255 -52
-19 -206 -19 -274 -1 -27 7 -70 22 -94 32 l-44 19 -1 117 c-1 74 -5 121 -13
129 -6 6 -26 14 -45 18 -26 5 -34 12 -36 34 l-3 27 312 0 312 0 -5 88 c-10
162 -78 276 -181 307 -59 17 -105 12 -159 -18 -47 -25 -82 -77 -109 -162 -19
-56 -25 -65 -45 -65 l-24 0 0 150 0 150 25 0 c14 0 29 -8 35 -19 10 -19 11
-19 67 4 81 34 204 34 284 2z"/>
<path d="M655 1031 c-33 -3 -66 -10 -73 -15 -25 -16 -34 -60 -27 -142 6 -79 7
-81 39 -97 124 -59 253 -10 316 117 18 35 34 82 37 104 l5 40 -118 0 c-66 -1
-146 -3 -179 -7z"/>
<path d="M1300 1017 c0 -32 32 -117 61 -160 55 -83 143 -118 240 -97 87 18 90
23 92 135 3 137 6 135 -219 135 -137 0 -174 -3 -174 -13z"/>
</g>
</svg>
